<?xml version="1.0" encoding="UTF-8" standalone="no"?>
<!-- Created with Inkscape (http://www.inkscape.org/) -->
<svg xmlns:dc="http://purl.org/dc/elements/1.1/" xmlns:cc="http://creativecommons.org/ns#" xmlns:rdf="http://www.w3.org/1999/02/22-rdf-syntax-ns#" xmlns:svg="http://www.w3.org/2000/svg" xmlns="http://www.w3.org/2000/svg" xmlns:sodipodi="http://sodipodi.sourceforge.net/DTD/sodipodi-0.dtd" xmlns:inkscape="http://www.inkscape.org/namespaces/inkscape" id="svg2985" version="1.1" inkscape:version="0.48.3.1 r9886" xml:space="preserve" sodipodi:docname="UWave Logo EPS format .pdf">
  <metadata id="metadata2991">
    <rdf:RDF>
      <cc:Work rdf:about="">
        <dc:format>image/svg+xml</dc:format>
        <dc:type rdf:resource="http://purl.org/dc/dcmitype/StillImage"/>
        <dc:title/>
      </cc:Work>
    </rdf:RDF>
  </metadata>
  <defs id="defs2989">
    <clipPath clipPathUnits="userSpaceOnUse" id="clipPath3001">
      <path d="M 0,0 672,0 672,472 0,472 0,0 z" id="path3003" inkscape:connector-curvature="0"/>
    </clipPath>
    <linearGradient x1="0" y1="0" x2="1" y2="0" gradientUnits="userSpaceOnUse" gradientTransform="matrix(252.676,0,0,-252.676,209.662,270.689)" spreadMethod="pad" id="linearGradient3023">
      <stop style="stop-opacity:1;stop-color:#bf1c2d" offset="0" id="stop3025"/>
      <stop style="stop-opacity:1;stop-color:#ef2d33" offset="1" id="stop3027"/>
    </linearGradient>
    <clipPath clipPathUnits="userSpaceOnUse" id="clipPath3035">
      <path d="m 0,0 672,0 0,471.96 -672,0 L 0,0 z" id="path3037" inkscape:connector-curvature="0"/>
    </clipPath>
  </defs>
  <sodipodi:namedview pagecolor="#ffffff" bordercolor="#666666" borderopacity="1" objecttolerance="10" gridtolerance="10" guidetolerance="10" inkscape:pageopacity="0" inkscape:pageshadow="2" inkscape:window-width="1920" inkscape:window-height="1018" id="namedview2987" showgrid="false" fit-margin-top="0" fit-margin-left="0" fit-margin-right="0" fit-margin-bottom="0" inkscape:zoom="0.35238095" inkscape:cx="157.9225" inkscape:cy="114.87848" inkscape:window-x="-8" inkscape:window-y="-8" inkscape:window-maximized="1" inkscape:current-layer="g2993"/>
  <g id="g2993" inkscape:groupmode="layer" inkscape:label="UWave Logo EPS format " transform="matrix(1.25,0,0,-1.25,-262.0775,413.14059)">
      <g id="g2999" clip-path="url(#clipPath3001)">
      <path d="m 462.338,320.773 c -0.693,0.468 -1.375,0.956 -2.082,1.4 -1.67,1.056 -3.437,1.858 -5.385,2.299 -3.015,0.682 -5.757,0.053 -8.333,-1.524 -1.771,-1.085 -3.204,-2.546 -4.471,-4.175 -1.793,-2.306 -3.173,-4.854 -4.364,-7.511 -2.561,-5.718 -4.209,-11.722 -5.525,-17.821 -1.732,-8.017 -2.871,-16.127 -3.709,-24.285 -1.161,-11.303 -1.842,-22.634 -2.109,-33.992 -0.039,-1.706 -0.118,-3.419 -0.327,-5.111 -0.625,-5.059 -4.391,-9.205 -9.319,-10.394 -2.996,-0.721 -5.76,-0.086 -8.366,1.413 -2.184,1.259 -3.9,3.036 -5.363,5.064 -2.017,2.796 -3.413,5.901 -4.532,9.143 -1.146,3.32 -1.846,6.745 -2.532,10.178 -0.602,3.016 -1.309,6.013 -2.527,8.846 -0.604,1.401 -1.294,2.807 -2.191,4.031 -1.895,2.587 -4.282,2.977 -6.897,1.134 -1.243,-0.875 -2.417,-1.938 -3.355,-3.127 -1.795,-2.275 -3.469,-4.654 -5.06,-7.076 -1.64,-2.495 -3.115,-5.1 -4.677,-7.647 -3.13,-5.103 -6.562,-9.989 -10.482,-14.524 -1.846,-2.136 -3.816,-4.15 -6.088,-5.842 -1.513,-1.127 -3.115,-2.066 -4.979,-2.547 -2.307,-0.594 -4.272,-0.006 -5.811,1.704 -0.896,0.998 -1.615,2.201 -2.218,3.409 -1.076,2.155 -1.546,4.516 -1.964,6.87 -0.925,5.207 -1.715,10.437 -2.724,15.626 -1.874,9.633 -4.008,19.21 -6.667,28.661 -1.712,6.08 -3.623,12.097 -6.099,17.919 -1.305,3.067 -2.698,6.101 -4.645,8.82 -0.986,1.378 -2.075,2.739 -3.344,3.848 -3.103,2.713 -6.213,2.404 -8.949,-0.697 -1.088,-1.232 -1.789,-2.688 -2.486,-4.159 -3.989,-8.404 -7.909,-16.842 -12.029,-25.182 -5.864,-11.869 -12.216,-23.474 -19.428,-34.591 -3.302,-5.091 -6.805,-10.037 -10.697,-14.698 -2.742,-3.283 -5.657,-6.396 -8.952,-9.138 -2.24,-1.866 -4.623,-3.509 -7.29,-4.716 -2.289,-1.035 -4.677,-1.616 -7.201,-1.501 -2.636,0.119 -4.989,1.034 -7.107,2.599 -2.089,1.542 -3.759,3.469 -5.213,5.597 -1.936,2.834 -3.436,5.898 -4.728,9.067 -2.49,6.107 -4.205,12.445 -5.588,18.879 -1.939,9.022 -3.235,18.143 -4.214,27.316 -0.889,8.323 -1.457,16.668 -1.954,25.019 -0.085,1.423 -0.449,2.828 -0.695,4.308 0.422,0.335 0.699,-0.109 0.934,-0.406 0.76,-0.969 1.056,-2.124 1.223,-3.321 0.495,-3.55 0.961,-7.106 1.494,-10.651 1.894,-12.588 4.271,-25.071 8.207,-37.21 1.292,-3.982 2.79,-7.884 4.641,-11.644 1.323,-2.687 2.828,-5.266 4.69,-7.621 1.384,-1.752 2.941,-3.322 4.819,-4.558 3.292,-2.168 6.814,-2.554 10.528,-1.355 2.219,0.717 4.177,1.929 6.018,3.338 2.661,2.034 4.964,4.435 7.104,6.996 4.011,4.799 7.395,10.03 10.534,15.423 5.418,9.311 10.111,18.988 14.342,28.88 3.222,7.531 6.27,15.139 9.323,22.74 1.734,4.321 4.008,8.294 7.034,11.829 1.561,1.827 3.292,3.47 5.323,4.774 5.115,3.284 10.026,2.878 14.514,-1.2 2.107,-1.917 3.733,-4.211 5.165,-6.653 2.078,-3.547 3.681,-7.315 5.066,-11.177 2.683,-7.489 4.563,-15.194 6.15,-22.976 1.196,-5.849 2.332,-11.711 3.6,-17.544 0.689,-3.17 1.666,-6.275 3.036,-9.225 0.752,-1.619 1.566,-3.241 2.591,-4.693 2.999,-4.253 6.686,-5.053 11.087,-2.35 1.804,1.108 3.481,2.477 5.039,3.919 2.002,1.854 3.845,3.882 5.722,5.868 2.287,2.421 4.468,4.945 6.825,7.296 1.868,1.864 3.89,3.585 5.922,5.273 1.382,1.146 2.961,2.019 4.678,2.604 3.233,1.099 6.22,0.699 8.913,-1.474 1.682,-1.36 2.981,-3.044 4.118,-4.865 1.954,-3.131 3.375,-6.509 4.639,-9.963 0.997,-2.724 1.963,-5.461 3.051,-8.149 0.573,-1.417 1.316,-2.777 2.097,-4.096 0.472,-0.796 1.088,-1.542 1.769,-2.169 1.254,-1.154 2.714,-1.119 3.857,0.115 0.686,0.74 1.317,1.601 1.717,2.52 0.92,2.108 1.793,4.247 2.485,6.437 1.728,5.457 2.909,11.056 4.118,16.644 2.328,10.758 4.428,21.569 7.182,32.232 1.537,5.953 3.186,11.877 5.567,17.558 1.087,2.59 2.358,5.112 3.659,7.604 0.952,1.82 2.211,3.449 3.681,4.899 3.733,3.684 7.806,4.185 12.336,1.506 0.586,-0.347 1.148,-0.742 1.694,-1.15 2.244,-1.679 4.484,-4.025 6.184,-6.897" style="fill:url(#linearGradient3023);fill-opacity:1;fill-rule:evenodd;stroke:none" id="path3029" inkscape:connector-curvature="0"/></g>
    </g>
</svg>
